<svg width="46" height="46" viewBox="0 0 46 46" fill="none" xmlns="http://www.w3.org/2000/svg">
<path d="M23.5864 25.5605H21.6606V27.1936L23.5864 27.1917V25.5605Z" fill="white"/>
<path d="M40.2152 22.8612L43.3774 19.5373L41.5806 11.2565L33.5905 8.882L32.8722 9.54832C30.1992 8.75105 25.3925 7.93066 22.1803 7.93066C10.2867 7.95185 0.940887 14.565 0.904297 22.9883C0.904297 30.1946 7.11878 38.202 22.2804 38.202C34.2954 38.202 45.0951 30.2023 45.0951 30.2023L40.2152 22.8612ZM1.73238 22.9922C1.76705 15.1427 10.591 8.77993 22.1822 8.75875C25.5947 8.75875 30.6961 9.69468 33.0821 10.492L33.8062 9.81985L40.8758 11.919L42.4761 19.2928L39.158 22.7688L43.9589 29.9885C40.1401 32.6654 31.1024 37.372 22.2824 37.372C9.67815 37.372 1.69772 31.221 1.73238 22.9922Z" fill="white"/>
<path d="M35.3104 23.3886C33.4657 21.7638 31.2568 20.6072 28.8706 20.0166V26.1329C31.1211 25.4841 33.2837 24.5625 35.3104 23.3886Z" fill="white"/>
<path d="M16.2797 26.3736V19.7432C14.3655 20.2978 12.2183 21.3801 12.2183 23.0959C12.2183 24.2707 14.0323 25.688 16.2797 26.3736Z" fill="white"/>
<path d="M21.7026 20.5452H23.5764V18.993L21.7026 18.916V20.5452Z" fill="white"/>
<path d="M37.9179 23.5297C37.9179 23.5297 32.9109 26.946 27.3935 27.9763V18.2858C33.3865 19.0387 36.9357 22.9519 36.9357 22.9519L40.9279 18.8308L39.6472 13.0399L34.1896 11.4454L33.4982 12.2003C31.2836 11.3337 26.7156 10.2129 21.6508 10.2129C11.5116 10.2129 3.23268 15.9575 3.21535 23.0463C3.20187 29.9521 10.229 35.9278 21.5719 35.9278C32.052 35.9278 39.6164 30.9362 41.9851 29.5978L37.9179 23.5297ZM21.1521 34.8205C11.2613 34.8205 4.29379 29.5959 4.29379 22.9288C4.29379 16.5487 12.2954 11.2778 21.4217 11.2778C27.4686 11.2778 31.4011 12.5681 33.7255 13.5002L34.4958 12.6297L38.7325 13.8699L39.7166 18.5246L36.8279 21.4575C33.3711 18.0508 26.8986 16.6123 21.5314 16.6123C13.5703 16.62 9.66478 19.6781 9.66478 22.8922C9.66478 26.4549 13.9208 29.4399 21.3966 29.515C26.7156 29.565 31.0756 28.8178 37.6252 24.9721L40.4676 29.2646C37.0686 31.0402 31.1815 34.8282 21.1521 34.8282V34.8205ZM20.6225 21.7021V17.7369C21.9617 17.6768 23.3035 17.7213 24.6358 17.8698V21.7098L20.6225 21.7021ZM24.6358 24.3289V28.3441C23.3026 28.4827 21.9602 28.5104 20.6225 28.4269V24.3366L24.6358 24.3289ZM17.7415 17.968V28.1515C16.0719 28.1515 10.7394 26.1911 10.7394 23.1021C10.7394 19.2795 16.1874 18.2241 17.7415 17.968Z" fill="white"/>
<path d="M37.6251 24.9717C31.0774 28.8232 26.7155 29.5646 21.3965 29.5146C13.9207 29.4453 9.6647 26.4545 9.6647 22.8918C9.6647 19.6796 13.5702 16.6196 21.5487 16.6196C26.9158 16.6196 33.3884 18.0581 36.8451 21.4648L39.7338 18.5319L38.7497 13.8773L34.513 12.6371L33.7427 13.5075C31.4183 12.5754 27.4859 11.2852 21.4389 11.2852C12.3126 11.2852 4.31104 16.556 4.31104 22.9361C4.31104 29.6032 11.2785 34.8278 21.1693 34.8278C31.1988 34.8278 37.0859 31.0475 40.4849 29.2642L37.6251 24.9717Z" fill="#C10A27"/>
<path d="M39.1581 22.7679L42.4762 19.2919L40.8759 11.9162L33.8064 9.80936L33.0823 10.4815C30.6962 9.69381 25.5949 8.74826 22.1824 8.75789C10.5815 8.77907 1.7672 15.1418 1.73253 22.9913C1.69787 31.2202 9.6783 37.3711 22.2806 37.3711C31.1007 37.3711 40.1383 32.6645 43.9572 29.9877L39.1581 22.7679ZM21.5738 35.9268C10.231 35.9268 3.20383 29.9569 3.21731 23.0452C3.23272 15.9564 11.5116 10.2118 21.6509 10.2118C26.7157 10.2118 31.2798 11.3327 33.4983 12.1993L34.1896 11.4443L39.6473 13.0389L40.9279 18.8297L36.9358 22.9509C36.9358 22.9509 33.3866 19.0319 27.3935 18.2789V27.9772C32.9128 26.9526 37.9179 23.5286 37.9179 23.5286L41.9871 29.589C39.6126 30.9352 32.0539 35.9268 21.5738 35.9268ZM35.3104 23.388C33.2837 24.5619 31.1211 25.4835 28.8706 26.1323V20.016C31.2568 20.6066 33.4657 21.7632 35.3104 23.388Z" fill="#133478"/>
<path d="M20.6221 28.4186C21.9598 28.5021 23.3022 28.4744 24.6354 28.3358V24.3359H20.6221V28.4186ZM21.6601 25.5607H23.5858V27.188H21.6601V25.5607Z" fill="#133478"/>
<path d="M20.6221 17.7369V21.7097H24.6354V17.8697C23.3031 17.7212 21.9613 17.6768 20.6221 17.7369ZM21.7024 18.9077L23.5762 18.9828V20.5446H21.7024V18.9077Z" fill="#133478"/>
<path d="M10.7393 23.0961C10.7393 26.1774 16.0717 28.1455 17.7414 28.1455V17.9678C16.1873 18.2239 10.7393 19.2792 10.7393 23.0961ZM16.2797 19.7433V26.3738C14.0323 25.6882 12.2183 24.2708 12.2183 23.1C12.2183 21.3803 14.3655 20.298 16.2797 19.7433Z" fill="#133478"/>
<path d="M42.1699 33.1582C41.9932 33.1582 41.8204 33.2106 41.6735 33.3088C41.5265 33.407 41.412 33.5465 41.3444 33.7098C41.2768 33.8731 41.2591 34.0528 41.2935 34.2261C41.328 34.3994 41.4131 34.5586 41.5381 34.6836C41.6631 34.8086 41.8223 34.8937 41.9956 34.9282C42.1689 34.9626 42.3486 34.9449 42.5119 34.8773C42.6752 34.8097 42.8147 34.6951 42.9129 34.5482C43.0111 34.4013 43.0635 34.2285 43.0635 34.0518C43.063 33.8149 42.9687 33.5879 42.8012 33.4205C42.6337 33.253 42.4068 33.1587 42.1699 33.1582ZM42.1699 34.7547C42.0309 34.7547 41.895 34.7134 41.7794 34.6362C41.6638 34.559 41.5737 34.4492 41.5205 34.3208C41.4673 34.1923 41.4534 34.051 41.4805 33.9146C41.5076 33.7783 41.5746 33.653 41.6729 33.5547C41.7712 33.4564 41.8964 33.3895 42.0328 33.3624C42.1691 33.3352 42.3105 33.3492 42.4389 33.4024C42.5674 33.4556 42.6771 33.5457 42.7544 33.6612C42.8316 33.7768 42.8728 33.9127 42.8728 34.0518C42.8718 34.2373 42.7973 34.4149 42.6655 34.5456C42.5337 34.6763 42.3555 34.7494 42.1699 34.7489V34.7547Z" fill="#133478"/>
<path d="M42.5379 33.8394C42.5379 33.7587 42.5058 33.6813 42.4488 33.6243C42.3917 33.5672 42.3143 33.5352 42.2336 33.5352H41.8022V34.5558H41.9948V34.1418H42.1316L42.3241 34.5558H42.5379L42.3357 34.1206C42.394 34.0998 42.4446 34.0618 42.4807 34.0116C42.5168 33.9614 42.5368 33.9013 42.5379 33.8394ZM42.2336 33.9492H41.9948V33.7354H42.2336C42.2494 33.7334 42.2654 33.7347 42.2806 33.7393C42.2959 33.7439 42.3099 33.7517 42.3219 33.7622C42.3338 33.7727 42.3434 33.7856 42.35 33.8001C42.3566 33.8145 42.36 33.8303 42.36 33.8462C42.36 33.8621 42.3566 33.8778 42.35 33.8923C42.3434 33.9068 42.3338 33.9197 42.3219 33.9302C42.3099 33.9406 42.2959 33.9485 42.2806 33.9531C42.2654 33.9577 42.2494 33.959 42.2336 33.9569V33.9492Z" fill="#133478"/>
</svg>
