<svg width="45" height="45" viewBox="0 0 45 45" fill="none" xmlns="http://www.w3.org/2000/svg">
<path d="M22.2128 24.2587H22.685C22.7685 24.2587 22.8486 24.2255 22.9077 24.1665C22.9667 24.1074 22.9999 24.0274 22.9999 23.9439V21.7982C22.9999 21.7147 22.9667 21.6347 22.9077 21.5756C22.8486 21.5166 22.7685 21.4834 22.685 21.4834H22.2128C22.1293 21.4834 22.0492 21.5166 21.9902 21.5756C21.9311 21.6347 21.8979 21.7147 21.8979 21.7982V23.9549C21.9008 24.0365 21.9352 24.1137 21.994 24.1704C22.0527 24.2271 22.1312 24.2588 22.2128 24.2587Z" fill="white"/>
<path d="M23.2501 27.8096H22.6094V29.0123H23.2501C23.3085 29.0123 23.3646 28.989 23.4059 28.9477C23.4472 28.9064 23.4705 28.8503 23.4705 28.7919V28.03C23.4705 28.001 23.4648 27.9724 23.4537 27.9456C23.4426 27.9189 23.4264 27.8946 23.4059 27.8741C23.3854 27.8537 23.3611 27.8374 23.3344 27.8263C23.3077 27.8153 23.279 27.8096 23.2501 27.8096Z" fill="white"/>
<path d="M19.2651 29.3905H19.9436L19.6036 27.8809L19.2651 29.3905Z" fill="white"/>
<path d="M18.5149 23.3647C18.7322 23.327 18.951 23.2907 19.1682 23.2577C19.2503 23.2445 19.3239 23.1994 19.3729 23.1321C19.4219 23.0649 19.4422 22.981 19.4295 22.8988L19.2863 22.0109C19.2799 21.97 19.2656 21.9306 19.244 21.8952C19.2225 21.8598 19.1941 21.829 19.1606 21.8046C19.1271 21.7802 19.0892 21.7626 19.0488 21.7529C19.0085 21.7432 18.9667 21.7415 18.9258 21.748L18.2693 21.8567L18.2158 21.8661L18.4598 23.3742L18.5149 23.3647Z" fill="white"/>
<path d="M22.2758 32.6299L21.8901 34.1395H22.6599L22.2758 32.6299Z" fill="white"/>
<path d="M33.3758 24.1956L32.9571 23.98C32.9129 23.9569 32.8637 23.945 32.8138 23.9453C32.7556 23.9451 32.6984 23.961 32.6487 23.9912C32.5989 24.0215 32.5585 24.065 32.532 24.1169L31.5497 26.0248C31.5121 26.099 31.5053 26.185 31.5309 26.2641C31.5432 26.3037 31.5636 26.3403 31.5907 26.3717C31.6177 26.4031 31.651 26.4286 31.6883 26.4467L32.107 26.664C32.1517 26.6875 32.2014 26.6999 32.2518 26.7002C32.3094 26.7 32.3658 26.6841 32.4149 26.6541C32.464 26.6241 32.504 26.5812 32.5305 26.5301L33.5159 24.6222C33.5351 24.5851 33.5467 24.5445 33.55 24.5028C33.5533 24.4612 33.5483 24.4193 33.5353 24.3796C33.5222 24.3398 33.5014 24.3031 33.474 24.2715C33.4467 24.24 33.4133 24.2142 33.3758 24.1956Z" fill="white"/>
<path d="M42.1116 17.6606C42.1168 17.6517 42.12 17.6417 42.121 17.6314C42.122 17.6211 42.1208 17.6107 42.1173 17.601C42.1139 17.5912 42.1083 17.5824 42.1011 17.575C42.0938 17.5676 42.085 17.5619 42.0754 17.5583C41.5171 17.3421 40.9366 17.1885 40.3445 17.1004C40.3339 17.0988 40.3238 17.0947 40.3151 17.0885C40.3064 17.0823 40.2993 17.074 40.2944 17.0645C40.2894 17.055 40.2868 17.0444 40.2868 17.0337C40.2868 17.023 40.2893 17.0124 40.2942 17.0028C40.7654 15.9963 41.0988 14.9309 41.2855 13.8354C41.2876 13.8239 41.2868 13.812 41.2832 13.8009C41.2796 13.7898 41.2733 13.7798 41.2649 13.7717C41.2565 13.7636 41.2462 13.7577 41.235 13.7545C41.2237 13.7513 41.2119 13.751 41.2005 13.7535C40.085 14.0688 39.0002 14.4838 37.9591 14.9935C37.9502 14.998 37.9404 15.0005 37.9305 15.0007C37.9206 15.0009 37.9107 14.9987 37.9017 14.9945C37.8927 14.9902 37.8848 14.9839 37.8787 14.9761C37.8725 14.9683 37.8683 14.9591 37.8662 14.9494C37.7199 14.3043 37.5515 13.5757 37.188 12.9448C37.1831 12.9362 37.1764 12.9289 37.1684 12.9231C37.1605 12.9173 37.1514 12.9132 37.1418 12.9112C37.1321 12.9091 37.1222 12.9091 37.1125 12.911C37.1029 12.913 37.0938 12.917 37.0858 12.9227C36.0583 13.6572 35.1139 14.5014 34.2692 15.4403C34.2619 15.4482 34.2529 15.4543 34.2429 15.4582C34.2328 15.462 34.222 15.4634 34.2114 15.4623C34.2007 15.4613 34.1904 15.4577 34.1813 15.452C34.1722 15.4463 34.1646 15.4385 34.159 15.4293C33.9421 15.0669 33.6528 14.753 33.3093 14.5073C33.2957 14.4969 33.2785 14.4922 33.2615 14.4943C33.2444 14.4963 33.2289 14.5049 33.2181 14.5183C31.8633 16.1941 30.1592 18.0949 27.961 19.6699C27.9509 19.6773 27.9388 19.6813 27.9264 19.6815C27.9139 19.6816 27.9018 19.6779 27.8916 19.6708C27.8813 19.6637 27.8736 19.6536 27.8694 19.6418C27.8652 19.6301 27.8647 19.6174 27.8681 19.6054C28.3685 17.9721 29.1269 16.4159 29.8523 14.9872C29.8572 14.9782 29.8599 14.9681 29.8602 14.9579C29.8606 14.9477 29.8585 14.9375 29.8542 14.9282C29.85 14.9189 29.8436 14.9107 29.8356 14.9043C29.8276 14.8978 29.8183 14.8934 29.8083 14.8912C29.4425 14.8188 29.0716 14.7752 28.6989 14.7606C28.6872 14.7599 28.6758 14.7561 28.6661 14.7496C28.6563 14.743 28.6484 14.734 28.6433 14.7234C28.6382 14.7129 28.6359 14.7011 28.6369 14.6894C28.6378 14.6776 28.6418 14.6664 28.6486 14.6567C29.5615 13.2503 30.2634 11.7177 30.7319 10.1077C30.7354 10.0978 30.7363 10.0872 30.7346 10.0769C30.7329 10.0666 30.7287 10.0568 30.7222 10.0485C30.7158 10.0403 30.7075 10.0337 30.6979 10.0295C30.6883 10.0253 30.6778 10.0235 30.6674 10.0243C29.8216 10.0679 28.9857 10.2267 28.1828 10.4964C28.1722 10.5001 28.1607 10.501 28.1496 10.499C28.1385 10.4969 28.1281 10.492 28.1195 10.4847C28.1109 10.4773 28.1044 10.4679 28.1006 10.4572C28.0968 10.4466 28.0958 10.4351 28.0979 10.424C28.3244 9.12584 28.219 7.66877 27.972 6.32027C27.9703 6.31054 27.9665 6.30131 27.9608 6.29321C27.9551 6.28511 27.9478 6.27835 27.9392 6.27341C27.9307 6.26846 27.9212 6.26544 27.9113 6.26457C27.9015 6.26369 27.8916 6.26498 27.8823 6.26835C27.2768 6.50505 26.6934 6.79465 26.1388 7.13378C26.1285 7.14021 26.1165 7.14365 26.1043 7.14369C26.0921 7.14374 26.0801 7.1404 26.0696 7.13404C26.0592 7.12769 26.0507 7.11856 26.0452 7.10768C26.0396 7.0968 26.0372 7.08459 26.0381 7.07241C26.1122 5.84464 26.0062 4.61263 25.7234 3.41557C25.7215 3.40675 25.7177 3.39844 25.7123 3.39118C25.7069 3.38392 25.7001 3.37787 25.6922 3.37342C25.6844 3.36897 25.6757 3.36622 25.6667 3.36535C25.6577 3.36448 25.6486 3.36551 25.64 3.36836C25.1829 3.54259 24.7434 3.7602 24.3277 4.01822C24.3191 4.02347 24.3093 4.0267 24.2993 4.02769C24.2892 4.02867 24.279 4.02738 24.2695 4.0239C24.26 4.02043 24.2514 4.01486 24.2443 4.00762C24.2372 4.00037 24.2318 3.99163 24.2286 3.98203C23.8085 2.75312 23.135 1.55568 22.408 0.362958C22.4017 0.352885 22.3928 0.344589 22.3824 0.33884C22.3719 0.333092 22.3602 0.330078 22.3483 0.330078C22.3363 0.330078 22.3246 0.333092 22.3141 0.33884C22.3037 0.344589 22.2948 0.352885 22.2885 0.362958C21.5615 1.55096 20.888 2.7484 20.4679 3.98203C20.4647 3.99163 20.4593 4.00037 20.4522 4.00762C20.4451 4.01486 20.4365 4.02043 20.427 4.0239C20.4175 4.02738 20.4073 4.02867 20.3973 4.02769C20.3872 4.0267 20.3774 4.02347 20.3688 4.01822C19.9529 3.76051 19.5135 3.54291 19.0565 3.36836C19.0479 3.36551 19.0388 3.36448 19.0298 3.36535C19.0208 3.36622 19.0121 3.36897 19.0043 3.37342C18.9964 3.37787 18.9896 3.38392 18.9842 3.39118C18.9788 3.39844 18.975 3.40675 18.9731 3.41557C18.6903 4.61263 18.5843 5.84464 18.6584 7.07241C18.6593 7.08459 18.6569 7.0968 18.6513 7.10768C18.6458 7.11856 18.6373 7.12769 18.6269 7.13404C18.6164 7.1404 18.6044 7.14374 18.5922 7.14369C18.58 7.14365 18.568 7.14021 18.5577 7.13378C18.0027 6.79526 17.4194 6.50569 16.8142 6.26835C16.8049 6.26498 16.795 6.26369 16.7852 6.26457C16.7753 6.26544 16.7658 6.26846 16.7573 6.27341C16.7487 6.27835 16.7414 6.28511 16.7357 6.29321C16.73 6.30131 16.7262 6.31054 16.7245 6.32027C16.4775 7.66877 16.3721 9.12584 16.5986 10.424C16.6007 10.4351 16.5997 10.4466 16.5959 10.4572C16.5921 10.4679 16.5856 10.4773 16.577 10.4847C16.5684 10.492 16.558 10.4969 16.5469 10.499C16.5358 10.501 16.5243 10.5001 16.5137 10.4964C15.7108 10.2267 14.8749 10.0679 14.0291 10.0243C14.0186 10.0236 14.0082 10.0254 13.9986 10.0297C13.989 10.0339 13.9806 10.0404 13.9741 10.0486C13.9676 10.0568 13.9632 10.0665 13.9612 10.0768C13.9593 10.0871 13.9599 10.0977 13.963 10.1077C14.4364 11.7233 15.1442 13.2607 16.0636 14.6709C16.0704 14.6805 16.0744 14.6918 16.0754 14.7035C16.0763 14.7153 16.0741 14.727 16.069 14.7376C16.0638 14.7482 16.056 14.7572 16.0462 14.7637C16.0364 14.7703 16.025 14.7741 16.0133 14.7747C15.6407 14.7893 15.2698 14.833 14.904 14.9053C14.894 14.9075 14.8846 14.912 14.8766 14.9184C14.8686 14.9249 14.8623 14.933 14.858 14.9423C14.8537 14.9517 14.8517 14.9618 14.852 14.9721C14.8523 14.9823 14.855 14.9923 14.8599 15.0013C15.5932 16.4332 16.3469 17.991 16.8457 19.6275C16.8489 19.6389 16.8486 19.6511 16.8448 19.6623C16.8409 19.6736 16.8337 19.6834 16.8241 19.6904C16.8145 19.6974 16.803 19.7013 16.7911 19.7016C16.7792 19.7019 16.7675 19.6985 16.7576 19.692C14.8096 18.3293 12.9402 16.3309 11.4942 14.534C11.4852 14.5206 11.4714 14.511 11.4557 14.5072C11.4399 14.5034 11.4233 14.5057 11.4092 14.5135C11.0656 14.7598 10.776 15.0735 10.5579 15.4356C10.5525 15.4448 10.5451 15.4525 10.5361 15.4583C10.5272 15.464 10.517 15.4676 10.5064 15.4686C10.4959 15.4697 10.4852 15.4683 10.4753 15.4645C10.4654 15.4606 10.4565 15.4545 10.4494 15.4466C9.60467 14.5077 8.66024 13.6635 7.63277 12.929C7.62475 12.9233 7.61563 12.9193 7.60599 12.9173C7.59635 12.9153 7.5864 12.9154 7.57677 12.9175C7.56715 12.9195 7.55806 12.9236 7.55009 12.9294C7.54212 12.9352 7.53545 12.9425 7.53049 12.951C7.17331 13.5805 6.99865 14.3106 6.85231 14.9557C6.85027 14.9654 6.84601 14.9746 6.83985 14.9824C6.8337 14.9902 6.82582 14.9965 6.81683 15.0008C6.80784 15.005 6.79798 15.0072 6.78803 15.007C6.77808 15.0068 6.76831 15.0043 6.75947 14.9998C5.71837 14.4901 4.63351 14.0751 3.51804 13.7598C3.50664 13.7573 3.49479 13.7576 3.48355 13.7608C3.47231 13.764 3.46203 13.7699 3.45362 13.778C3.44521 13.7861 3.43893 13.7961 3.43534 13.8072C3.43176 13.8183 3.43098 13.8302 3.43307 13.8417C3.6197 14.9372 3.95313 16.0026 4.42438 17.0091C4.42924 17.0187 4.43175 17.0293 4.43172 17.04C4.43168 17.0507 4.4291 17.0613 4.42418 17.0708C4.41926 17.0803 4.41215 17.0886 4.40343 17.0948C4.39471 17.101 4.38464 17.1051 4.37403 17.1067C3.78191 17.1948 3.2014 17.3484 2.64317 17.5646C2.63348 17.5682 2.62471 17.5739 2.61746 17.5813C2.61022 17.5887 2.60467 17.5975 2.60122 17.6073C2.59777 17.617 2.5965 17.6274 2.5975 17.6377C2.59849 17.648 2.60173 17.658 2.60698 17.6669C3.23974 18.7914 4.06406 19.7968 5.04277 20.6376C5.05154 20.6437 5.0587 20.6519 5.06364 20.6613C5.06859 20.6708 5.07117 20.6813 5.07117 20.6919C5.07117 20.7026 5.06859 20.7131 5.06364 20.7226C5.0587 20.732 5.05154 20.7401 5.04277 20.7462C4.67084 20.9676 4.32601 21.2317 4.01527 21.533C4.00861 21.5396 4.00332 21.5474 3.99971 21.556C3.9961 21.5647 3.99425 21.574 3.99425 21.5833C3.99425 21.5927 3.9961 21.602 3.99971 21.6106C4.00332 21.6193 4.00861 21.6271 4.01527 21.6337C5.1905 22.7957 6.47937 23.8368 7.86251 24.7414C7.8716 24.7479 7.87901 24.7566 7.88412 24.7665C7.88923 24.7765 7.8919 24.7876 7.8919 24.7988C7.8919 24.81 7.88923 24.8211 7.88412 24.8311C7.87901 24.841 7.8716 24.8497 7.86251 24.8562C7.36546 25.23 6.91112 25.6575 6.50771 26.1308C6.50138 26.1371 6.49636 26.1445 6.49294 26.1528C6.48951 26.161 6.48775 26.1698 6.48775 26.1788C6.48775 26.1877 6.48951 26.1965 6.49294 26.2048C6.49636 26.213 6.50138 26.2205 6.50771 26.2268C7.54609 27.1439 8.73328 27.8771 10.0182 28.3951C10.0296 28.3996 10.0396 28.4072 10.0471 28.4169C10.0546 28.4266 10.0594 28.4381 10.061 28.4503C10.0626 28.4624 10.061 28.4748 10.0562 28.4861C10.0514 28.4974 10.0438 28.5073 10.034 28.5146C9.58067 28.86 9.16976 29.2577 8.80976 29.6995C8.80321 29.7076 8.79854 29.7171 8.79609 29.7273C8.79363 29.7374 8.79345 29.748 8.79555 29.7582C8.79766 29.7684 8.802 29.7781 8.80826 29.7864C8.81453 29.7948 8.82256 29.8016 8.83179 29.8065C9.79163 30.299 10.956 30.6184 12.1645 30.8372C12.1765 30.8393 12.1874 30.8456 12.1953 30.8549C12.2031 30.8643 12.2074 30.8761 12.2074 30.8883C12.2074 30.9005 12.2031 30.9123 12.1953 30.9217C12.1874 30.931 12.1765 30.9373 12.1645 30.9394C10.6646 31.4039 9.2175 32.0241 7.84677 32.7899C7.83703 32.7961 7.82901 32.8048 7.82346 32.8149C7.81791 32.8251 7.815 32.8365 7.815 32.8481C7.815 32.8597 7.81791 32.8711 7.82346 32.8813C7.82901 32.8914 7.83703 32.9 7.84677 32.9063C8.82131 33.6625 9.89435 34.2824 11.0363 34.7489C11.0475 34.7533 11.0575 34.7605 11.0651 34.7699C11.0726 34.7793 11.0776 34.7906 11.0796 34.8025C11.0815 34.8144 11.0802 34.8267 11.0759 34.838C11.0717 34.8493 11.0645 34.8592 11.0552 34.8669C9.4923 36.1606 8.11792 37.6663 6.9719 39.3404C6.96432 39.3516 6.9601 39.3647 6.95973 39.3782C6.95935 39.3917 6.96284 39.405 6.96979 39.4166C6.97674 39.4281 6.98685 39.4375 6.99893 39.4435C7.01101 39.4495 7.02456 39.452 7.03799 39.4506C8.55216 39.2782 10.0527 39.0017 11.5288 38.6229C11.5413 38.6192 11.5546 38.6193 11.567 38.6231C11.5795 38.6269 11.5905 38.6344 11.5987 38.6445C11.607 38.6545 11.612 38.6668 11.6133 38.6798C11.6146 38.6928 11.612 38.7058 11.6059 38.7173C11.317 39.3003 11.0602 39.8986 10.8364 40.5095C10.8323 40.5207 10.8311 40.5328 10.8329 40.5446C10.8348 40.5564 10.8397 40.5675 10.8472 40.5769C10.8546 40.5862 10.8643 40.5935 10.8754 40.5979C10.8865 40.6024 10.8986 40.6039 10.9104 40.6024C12.2248 40.4749 13.5312 40.2753 14.8237 40.0044C14.837 40.0011 14.8511 40.0018 14.864 40.0066C14.8768 40.0114 14.8879 40.0201 14.8958 40.0313C14.9037 40.0426 14.9079 40.056 14.908 40.0698C14.908 40.0835 14.9039 40.0969 14.8961 40.1083C14.4465 40.8115 14.0974 41.5742 13.8592 42.3741C13.8558 42.3857 13.8554 42.3979 13.858 42.4097C13.8607 42.4214 13.8663 42.4323 13.8743 42.4413C13.8824 42.4503 13.8926 42.4571 13.9039 42.461C13.9153 42.465 13.9275 42.4659 13.9394 42.4638C16.3824 42.0231 18.7582 41.2684 21.0076 40.2184C21.0205 40.2122 21.0348 40.2092 21.0491 40.2098C21.0634 40.2104 21.0774 40.2145 21.0897 40.2219C21.102 40.2292 21.1124 40.2395 21.1197 40.2518C21.1271 40.2641 21.1313 40.278 21.1319 40.2924C21.2068 41.8638 21.846 43.3555 22.932 44.4937C22.9502 44.5112 22.9745 44.5209 22.9997 44.5209C23.0249 44.5209 23.0492 44.5112 23.0673 44.4937L24.4253 43.2348C24.4437 43.2155 24.4539 43.1899 24.4539 43.1632C24.4539 43.1366 24.4437 43.111 24.4253 43.0917C24.1562 42.7848 22.921 41.3828 23.1397 40.316C23.1466 40.2864 23.1599 40.2586 23.1788 40.2348C23.1976 40.2109 23.2215 40.1916 23.2487 40.178C23.276 40.1645 23.3058 40.1571 23.3362 40.1565C23.3666 40.1559 23.3968 40.162 23.4245 40.1744C24.9902 40.8824 28.2332 41.965 30.7807 42.456C30.7923 42.4582 30.8044 42.4574 30.8156 42.4536C30.8268 42.4498 30.8368 42.443 30.8446 42.4341C30.8525 42.4252 30.8578 42.4144 30.8601 42.4027C30.8624 42.3911 30.8616 42.3791 30.8578 42.3678C30.6186 41.5704 30.269 40.8104 29.8193 40.1099C29.8115 40.0985 29.8074 40.0851 29.8074 40.0713C29.8075 40.0576 29.8117 40.0442 29.8196 40.0329C29.8274 40.0216 29.8386 40.013 29.8514 40.0082C29.8643 40.0034 29.8783 40.0026 29.8917 40.006C31.1812 40.2744 32.4844 40.4719 33.7955 40.5976C33.8074 40.5992 33.8194 40.5977 33.8305 40.5932C33.8416 40.5887 33.8513 40.5815 33.8588 40.5721C33.8662 40.5628 33.8711 40.5517 33.873 40.5399C33.8749 40.5281 33.8737 40.516 33.8695 40.5048C33.6458 39.8938 33.3889 39.2956 33.1001 38.7126C33.0941 38.7012 33.0917 38.6884 33.0929 38.6756C33.0941 38.6629 33.0991 38.6508 33.1071 38.6408C33.1151 38.6308 33.1258 38.6233 33.138 38.6193C33.1501 38.6153 33.1632 38.6149 33.1756 38.6182C34.6523 38.9968 36.1533 39.2733 37.668 39.4458C37.6814 39.4473 37.6949 39.4448 37.707 39.4388C37.7191 39.4328 37.7292 39.4234 37.7362 39.4118C37.7431 39.4003 37.7466 39.387 37.7462 39.3735C37.7458 39.36 37.7416 39.3469 37.734 39.3357C36.588 37.6616 35.2136 36.1558 33.6508 34.8622C33.6414 34.8545 33.6343 34.8445 33.63 34.8332C33.6257 34.8219 33.6245 34.8097 33.6264 34.7978C33.6283 34.7858 33.6333 34.7746 33.6409 34.7652C33.6485 34.7558 33.6584 34.7486 33.6697 34.7442C34.8113 34.2781 35.8839 33.6582 36.8576 32.9016C36.8673 32.8953 36.8754 32.8867 36.8809 32.8765C36.8865 32.8664 36.8894 32.855 36.8894 32.8434C36.8894 32.8318 36.8865 32.8204 36.8809 32.8102C36.8754 32.8 36.8673 32.7914 36.8576 32.7852C35.4869 32.0194 34.0397 31.3992 32.5399 30.9347C32.5279 30.9326 32.517 30.9263 32.5091 30.917C32.5013 30.9076 32.497 30.8958 32.497 30.8836C32.497 30.8714 32.5013 30.8595 32.5091 30.8502C32.517 30.8408 32.5279 30.8345 32.5399 30.8324C33.7483 30.6137 34.9127 30.2943 35.8726 29.8018C35.8817 29.7968 35.8896 29.7898 35.8957 29.7814C35.9018 29.773 35.906 29.7633 35.9079 29.7531C35.9099 29.7429 35.9095 29.7323 35.907 29.7223C35.9044 29.7122 35.8996 29.7028 35.893 29.6948C35.534 29.2527 35.1236 28.8549 34.6704 28.5099C34.6606 28.5026 34.6529 28.4927 34.6482 28.4814C34.6434 28.4701 34.6418 28.4577 34.6434 28.4455C34.645 28.4334 34.6498 28.4218 34.6573 28.4121C34.6648 28.4024 34.6748 28.3949 34.6862 28.3903C35.9709 27.872 37.158 27.1388 38.1967 26.222C38.2091 26.2091 38.216 26.1919 38.216 26.174C38.216 26.1562 38.2091 26.139 38.1967 26.1261C37.7933 25.6527 37.3389 25.2253 36.8419 24.8515C36.8328 24.845 36.8254 24.8363 36.8202 24.8263C36.8151 24.8164 36.8125 24.8053 36.8125 24.7941C36.8125 24.7829 36.8151 24.7718 36.8202 24.7618C36.8254 24.7518 36.8328 24.7432 36.8419 24.7366C38.2274 23.835 39.5189 22.7965 40.697 21.6368C40.7036 21.6302 40.7089 21.6224 40.7125 21.6138C40.7161 21.6051 40.718 21.5958 40.718 21.5865C40.718 21.5771 40.7161 21.5678 40.7125 21.5592C40.7089 21.5506 40.7036 21.5427 40.697 21.5361C40.3862 21.2348 40.0414 20.9708 39.6695 20.7494C39.6602 20.7439 39.6524 20.7364 39.6468 20.7273C39.6411 20.7182 39.6378 20.7078 39.637 20.6972C39.6362 20.6865 39.6381 20.6758 39.6423 20.6659C39.6466 20.6561 39.6532 20.6475 39.6616 20.6408C40.6462 19.7983 41.4755 18.7896 42.1116 17.6606ZM29.4888 22.5652C29.1993 22.4724 28.9066 22.3795 28.6171 22.2914L28.839 21.6337C29.6855 21.8902 30.5352 22.1765 31.3566 22.4834L31.1363 23.1411C30.8515 23.0357 30.562 22.9318 30.2756 22.8264L30.2237 22.8091L29.1222 26.0977C28.8925 26.0191 28.6596 25.9404 28.4314 25.8664L29.5329 22.5762L29.4888 22.5652ZM28.1954 27.1284H30.2913V27.8097H28.9098V28.5965H29.8539V29.2778H28.9098V30.0646H30.2913V30.7443H28.1954V27.1284ZM27.8209 34.4452H28.5384V34.6026C28.5389 34.6611 28.5624 34.7172 28.604 34.7584C28.6455 34.7997 28.7017 34.8229 28.7603 34.8229H29.3472C29.4058 34.8229 29.462 34.7997 29.5036 34.7584C29.5451 34.7172 29.5687 34.6611 29.5691 34.6026V34.376C29.5671 34.3361 29.555 34.2973 29.5342 34.2632C29.5133 34.2291 29.4842 34.2008 29.4495 34.1809C29.4322 34.1714 28.1639 33.6081 28.1639 33.6081C28.0516 33.5458 27.9593 33.4528 27.898 33.3399C27.8367 33.227 27.8089 33.099 27.8178 32.9708V32.5932C27.8184 32.4988 27.8376 32.4054 27.8743 32.3184C27.911 32.2314 27.9645 32.1524 28.0317 32.0861C28.0989 32.0198 28.1786 31.9673 28.266 31.9317C28.3535 31.8962 28.4472 31.8782 28.5416 31.8788H29.5612C29.6562 31.8774 29.7505 31.8947 29.8387 31.9299C29.9269 31.9651 30.0073 32.0174 30.0752 32.0838C30.143 32.1503 30.1971 32.2295 30.2342 32.3169C30.2713 32.4043 30.2907 32.4982 30.2913 32.5932V32.9236H29.5738V32.7663C29.5734 32.7077 29.5498 32.6517 29.5083 32.6104C29.4667 32.5691 29.4105 32.546 29.352 32.546H28.7635C28.7343 32.5458 28.7054 32.5513 28.6784 32.5623C28.6514 32.5732 28.6269 32.5894 28.6061 32.6099C28.5854 32.6303 28.5688 32.6546 28.5575 32.6815C28.5462 32.7083 28.5402 32.7371 28.54 32.7663V32.8465C28.5422 32.8864 28.5543 32.9251 28.5751 32.9592C28.596 32.9933 28.625 33.0216 28.6596 33.0416C28.6769 33.0511 29.9452 33.616 29.9452 33.616C30.0577 33.6781 30.15 33.7711 30.2114 33.884C30.2727 33.997 30.3004 34.1251 30.2913 34.2532V34.7725C30.2901 34.9629 30.2133 35.1451 30.0779 35.279C29.9425 35.413 29.7595 35.4877 29.5691 35.4869H28.5447C28.4503 35.4875 28.3567 35.4695 28.2692 35.4339C28.1817 35.3984 28.1021 35.3459 28.0349 35.2796C27.9677 35.2133 27.9142 35.1343 27.8775 35.0473C27.8408 34.9603 27.8215 34.8669 27.8209 34.7725V34.4452ZM26.6235 23.588L27.0232 21.2277C27.2623 21.2718 27.5031 21.319 27.7375 21.3662L27.0436 25.4715L26.4756 25.3613C26.2112 24.5746 25.939 23.7752 25.6699 22.9885L25.6007 22.7855L25.201 25.1458C24.9619 25.108 24.7195 25.0718 24.4804 25.0388L25.1759 20.9335C25.3662 20.9602 25.5582 20.987 25.7486 21.0169C26.0177 21.8036 26.2883 22.5904 26.5542 23.3771L26.6235 23.588ZM26.4315 33.3532V34.0251H25.3301V35.4947H24.6141V31.8757H26.8847V32.5554H25.3301V33.3422L26.4315 33.3532ZM25.2561 30.7506V27.1315H25.9658V30.074H27.2765V30.7538L25.2561 30.7506ZM18.2854 13.7063C19.2745 15.184 20.5761 16.4264 22.0981 17.3459C22.1 17.347 22.1021 17.3476 22.1044 17.3476C22.1066 17.3476 22.1087 17.347 22.1107 17.3459C22.1108 17.3432 22.1108 17.3406 22.1107 17.338C22.0965 16.2145 22.1107 15.0769 22.1421 13.9549C22.1428 13.9361 22.1388 13.9173 22.1306 13.9003C22.1223 13.8833 22.1101 13.8686 22.0949 13.8574C21.2332 13.1986 20.5241 12.3612 20.0163 11.4027L20.0352 11.3917C20.5898 12.255 21.3 13.0079 22.1295 13.6119C22.1319 13.6137 22.1347 13.6147 22.1376 13.615C22.1405 13.6153 22.1434 13.6147 22.146 13.6134C22.1486 13.6121 22.1508 13.6101 22.1524 13.6076C22.1539 13.6051 22.1547 13.6023 22.1547 13.5993C22.1704 13.1886 22.1846 12.8488 22.2003 12.5262C22.257 11.5821 22.3042 10.6097 22.3372 9.62307C22.339 9.58849 22.3272 9.55459 22.3042 9.52866C21.6592 8.77004 21.0974 7.94448 20.6284 7.06612L20.6457 7.0551C21.1378 7.82417 21.701 8.54537 22.3278 9.20924C22.3309 9.21032 22.3342 9.21032 22.3372 9.20924C22.3407 9.20926 22.3441 9.20799 22.3467 9.20566C22.3493 9.20334 22.351 9.20013 22.3514 9.19665C22.3986 7.67507 22.4159 6.15033 22.4033 4.66179H22.4238C22.5465 6.06379 22.6063 9.05031 22.5622 11.6104C22.5609 11.615 22.5609 11.62 22.5622 11.6246C22.5659 11.6265 22.5699 11.6275 22.5741 11.6275C22.5782 11.6275 22.5822 11.6265 22.5859 11.6246C23.335 11.2407 24.0306 10.7604 24.655 10.1958L24.6692 10.2116C24.0661 10.8729 23.3631 11.4357 22.5859 11.8795C22.5756 11.885 22.567 11.8932 22.5609 11.9031C22.5548 11.9131 22.5515 11.9245 22.5512 11.9361C22.5512 12.1611 22.5418 12.3657 22.5355 12.5655C22.4694 14.0084 22.4694 15.7126 22.5355 17.7943C22.5356 17.7975 22.5367 17.8006 22.5385 17.8033C22.5403 17.806 22.5428 17.8081 22.5458 17.8094C22.5487 17.8107 22.552 17.8112 22.5551 17.8107C22.5583 17.8103 22.5613 17.809 22.5638 17.8069C24.2585 16.5969 25.5283 15.2893 26.3403 13.9408L26.3591 13.9518C25.6998 15.3208 24.3136 16.8659 22.5733 18.1877C22.5664 18.1931 22.5608 18.2001 22.557 18.208C22.5532 18.2159 22.5512 18.2246 22.5512 18.2333C22.5638 18.548 22.5764 18.8848 22.589 19.2105C22.5892 19.2148 22.5884 19.2192 22.5868 19.2233C22.5851 19.2273 22.5827 19.231 22.5796 19.2341C22.5768 19.2377 22.5732 19.2405 22.5691 19.2425C22.565 19.2444 22.5605 19.2453 22.556 19.2451H22.1878C22.1794 19.2447 22.1714 19.2414 22.1653 19.2356C22.1592 19.2298 22.1555 19.222 22.1547 19.2136C22.139 18.751 22.1248 18.2695 22.1154 17.7581C22.1157 17.7512 22.1141 17.7443 22.1108 17.7382C22.1075 17.732 22.1025 17.727 22.0965 17.7235C20.5208 16.7141 19.2079 15.3441 18.2666 13.7268L18.2854 13.7063ZM19.497 33.3485V34.0251H18.3956V34.8118H19.9502V35.4916H17.6718V31.8725H19.9439V32.5523H18.3893V33.339L19.497 33.3485ZM19.1194 30.0709L18.9621 30.7506H18.2288L19.121 27.1315H20.0887L20.9809 30.7506H20.2508L20.0934 30.0709H19.1194ZM21.7944 31.8788H22.7715L23.7518 35.4979H23.006L22.8329 34.8181H21.7173L21.5442 35.4979H20.8062L21.7944 31.8788ZM21.1555 24.1828V21.5943C21.1555 21.3836 21.2376 21.1812 21.3846 21.0301C21.5315 20.879 21.7316 20.7913 21.9423 20.7856H22.4505H22.9603C23.1711 20.7909 23.3715 20.8785 23.5185 21.0297C23.6655 21.1808 23.7476 21.3835 23.7471 21.5943V24.1781C23.7473 24.2808 23.727 24.3825 23.6874 24.4773C23.6478 24.572 23.5896 24.6579 23.5163 24.7299C23.443 24.8019 23.3561 24.8585 23.2606 24.8964C23.1651 24.9343 23.063 24.9527 22.9603 24.9506C22.4018 24.9506 22.0162 24.9506 21.9297 24.9506C21.8277 24.9523 21.7264 24.9337 21.6317 24.8959C21.537 24.8581 21.4508 24.8018 21.378 24.7303C21.3053 24.6589 21.2474 24.5737 21.2079 24.4797C21.1683 24.3857 21.1479 24.2848 21.1477 24.1828H21.1555ZM23.4717 29.6901H22.6173V30.749H21.9077V27.13H23.4717C23.5658 27.13 23.6589 27.1485 23.7457 27.1845C23.8326 27.2204 23.9115 27.2732 23.978 27.3397C24.0445 27.4061 24.0972 27.4851 24.1332 27.5719C24.1692 27.6588 24.1877 27.7519 24.1877 27.8459V28.9773C24.1875 29.0718 24.1686 29.1654 24.132 29.2526C24.0954 29.3398 24.042 29.4189 23.9747 29.4853C23.9074 29.5517 23.8276 29.6041 23.7399 29.6396C23.6522 29.675 23.5584 29.6927 23.4639 29.6916L23.4717 29.6901ZM19.0659 21.0247C19.1044 21.0185 19.1433 21.0153 19.1823 21.0153C19.3723 21.0187 19.555 21.0885 19.6988 21.2127C19.8426 21.3369 19.9382 21.5076 19.9691 21.695L20.1815 23.0137C20.2092 23.184 20.1787 23.3587 20.0951 23.5097C20.0115 23.6606 19.8795 23.7791 19.7205 23.846L19.6591 23.8728L19.6985 23.9279L20.4726 25.0293C20.2382 25.0608 20.0006 25.0938 19.7645 25.13L18.9778 24.0191L18.9573 23.9924H18.9243L18.6206 24.0443L18.5687 24.0537L18.7669 25.2858C18.5293 25.3283 18.2949 25.3723 18.051 25.418L17.3885 21.3127C17.9424 21.2057 18.5057 21.1097 19.0628 21.0263L19.0659 21.0247ZM16.7292 34.8197V35.4995H14.6081V31.8804H15.3257V34.8213L16.7292 34.8197ZM16.6018 30.7506V29.0795L15.9614 30.5303L15.3209 29.0795V30.7506H14.6081V27.1315H15.173L15.9598 28.9474L16.7466 27.1315H17.3099V30.7506H16.6018ZM9.57449 20.3938C9.56865 20.3881 9.56176 20.3837 9.55419 20.3807C9.54663 20.3777 9.53855 20.3763 9.53043 20.3764H9.42185C8.38196 20.3847 7.36107 20.0977 6.47782 19.5488L6.48883 19.5299C7.25652 19.918 8.10229 20.1267 8.96239 20.1404C9.07726 20.1404 9.19212 20.1404 9.30699 20.1278C9.10558 19.928 8.92463 19.7518 8.75311 19.5913C7.58871 18.4552 6.62573 17.4308 5.81222 16.46L5.82796 16.4458C6.79724 17.456 7.63277 18.29 8.40065 18.9902H8.41166C8.51802 18.369 8.46386 17.7309 8.25431 17.1366L8.27477 17.1271C8.57839 17.7558 8.7041 18.4556 8.63825 19.1507C8.63706 19.1647 8.63914 19.1789 8.64433 19.192C8.64952 19.2051 8.65767 19.2168 8.66814 19.2262C9.35734 19.8336 10.0103 20.4457 10.6099 21.042C10.6172 20.2173 10.3729 19.4098 9.90964 18.7274L9.92695 18.7148C10.545 19.4273 10.8891 20.3365 10.8978 21.2796C10.8978 21.2937 10.9005 21.3076 10.9059 21.3206C10.9113 21.3336 10.9193 21.3453 10.9293 21.3552L11.2062 21.6416C11.2079 21.6455 11.2088 21.6498 11.2088 21.6541C11.2088 21.6585 11.2079 21.6628 11.2062 21.6667C11.2053 21.6713 11.2034 21.6756 11.2007 21.6794C11.198 21.6832 11.1945 21.6864 11.1905 21.6888L10.9387 21.8068C10.9341 21.8082 10.9292 21.8082 10.9246 21.8068C10.9198 21.807 10.9151 21.8061 10.9107 21.8042C10.9063 21.8022 10.9025 21.7994 10.8994 21.7958C10.3974 21.2497 9.96157 20.7871 9.57449 20.3938ZM12.9827 27.3455L11.3887 24.2693L11.34 24.2945C11.0709 24.4377 10.8018 24.584 10.5375 24.7304L10.2228 24.1135C10.9969 23.684 11.7963 23.2717 12.583 22.8893L12.8977 23.5046C12.624 23.6368 12.3486 23.7721 12.0779 23.909L12.0292 23.9342L13.6247 27.0151C13.4154 27.1205 13.1983 27.2338 12.9827 27.3455ZM14.2415 22.2237C14.5562 22.112 14.8851 22.0019 15.2061 21.898C15.2841 21.8716 15.366 21.8583 15.4484 21.8587C15.6173 21.8604 15.7816 21.9142 15.9187 22.0127C16.0559 22.1113 16.1593 22.2499 16.2147 22.4094L17.0439 24.8562C17.0775 24.9524 17.0912 25.0544 17.0845 25.1561C17.0777 25.2577 17.0506 25.357 17.0046 25.4479C16.9583 25.5409 16.8937 25.6236 16.8148 25.6912C16.7359 25.7588 16.6442 25.8098 16.5451 25.8413C16.2304 25.9451 15.8969 26.0553 15.5774 26.1685C15.4925 26.1986 15.4031 26.214 15.3131 26.2142C15.1519 26.2141 14.9948 26.1635 14.8638 26.0696C14.7328 25.9756 14.6346 25.8429 14.583 25.6902L13.7553 23.2465C13.6859 23.0464 13.698 22.8269 13.789 22.6356C13.8799 22.4442 14.0425 22.2963 14.2415 22.2237ZM27.5943 38.3758C27.1892 38.3753 26.785 38.34 26.3859 38.2704C26.3859 38.2704 26.3749 38.2704 26.3859 38.2814C26.7541 38.6402 27.4873 39.0052 27.9027 39.1673L28.0994 39.2444L27.8917 39.2098C27.4071 39.128 26.3937 38.6481 25.8462 38.1681C25.8398 38.1616 25.8315 38.1572 25.8226 38.1556C24.9194 37.951 24.1452 37.6756 23.3726 37.6756C22.3671 37.6756 21.6417 37.9054 21.272 38.9061C21.2516 38.705 21.2708 38.5019 21.3286 38.3082C21.3304 38.3054 21.3314 38.3021 21.3314 38.2987C21.3314 38.2954 21.3304 38.2921 21.3286 38.2893C21.1319 38.1587 20.3845 37.6977 19.6465 37.6977C18.5356 37.6977 17.1053 38.9439 16.007 39.0713C16.5388 38.892 17.1352 38.4907 17.7379 38.1272V38.1146C16.7229 37.9164 15.4484 38.1351 14.0952 38.4781C15.3902 37.9746 16.7135 37.7071 18.0935 37.9101C18.1001 37.9125 18.1073 37.9125 18.1139 37.9101C18.6332 37.6158 19.1477 37.3877 19.6198 37.3877C20.4962 37.3877 21.2484 37.8424 21.4765 37.9919C21.4789 37.9941 21.482 37.9954 21.4852 37.9954C21.4884 37.9954 21.4915 37.9941 21.4938 37.9919C21.8432 37.4789 22.5623 37.2712 23.3207 37.2712C24.5197 37.2712 26.3701 38.1603 27.843 38.1603C29.4574 38.1603 29.9184 38.0139 30.4015 37.9117C29.9294 38.0926 29.2056 38.379 27.5975 38.379L27.5943 38.3758ZM34.2645 24.7839L33.078 27.0796C33.0136 27.2057 32.9156 27.3115 32.7948 27.3854C32.674 27.4593 32.5351 27.4983 32.3935 27.4982C32.2639 27.4978 32.1363 27.4653 32.0222 27.4037C31.7217 27.2464 31.4164 27.089 31.1159 26.9317C31.0226 26.886 30.9395 26.822 30.8714 26.7437C30.8033 26.6653 30.7516 26.5741 30.7193 26.4754C30.6878 26.3785 30.6759 26.2762 30.6842 26.1747C30.6926 26.0731 30.7211 25.9742 30.7681 25.8837L31.9545 23.588C32.024 23.4565 32.1279 23.3464 32.2551 23.2694C32.3823 23.1923 32.5281 23.1513 32.6768 23.1505C32.7986 23.1498 32.9188 23.1778 33.0277 23.2324C33.3298 23.3897 33.635 23.5471 33.9324 23.7044C34.1193 23.8047 34.2592 23.9744 34.3219 24.177C34.3847 24.3796 34.3651 24.5987 34.2676 24.787L34.2645 24.7839ZM34.8561 20.5668C34.9615 20.5668 35.0685 20.5779 35.1708 20.5779C35.9492 20.568 36.7164 20.3914 37.4209 20.0602L37.4319 20.0791C36.5822 20.5891 35.608 20.8543 34.6169 20.8454C34.6002 20.8452 34.5836 20.8485 34.5682 20.855C34.5527 20.8615 34.5388 20.871 34.5272 20.8831C34.2125 21.1978 33.9529 21.4889 33.7137 21.7517C33.7058 21.7597 33.6951 21.7642 33.6838 21.7643H33.6665L33.41 21.6321C33.4062 21.6299 33.4028 21.627 33.4001 21.6235C33.3974 21.62 33.3954 21.6159 33.3943 21.6117C33.3935 21.6071 33.3938 21.6025 33.3951 21.5981C33.3965 21.5937 33.3989 21.5897 33.4022 21.5865C34.052 20.9146 34.7664 20.2317 35.5217 19.5566C35.5329 19.5467 35.5417 19.5342 35.5475 19.5203C35.5532 19.5064 35.5557 19.4914 35.5547 19.4764C35.4846 18.74 35.5743 17.9972 35.8175 17.2987H35.838C35.7047 17.9587 35.6845 18.6365 35.7782 19.3033C35.7782 19.3033 35.7782 19.3033 35.786 19.3033C36.7836 18.3592 37.7104 17.4529 38.6184 16.5387L38.6341 16.5528C37.8662 17.4513 37.0275 18.3592 36.1432 19.253C35.7089 19.6668 35.2684 20.1011 34.8372 20.5432C34.8364 20.5447 34.8359 20.5463 34.8359 20.548C34.8359 20.5496 34.8364 20.5512 34.8372 20.5527L34.8545 20.57L34.8561 20.5668Z" fill="white"/>
<path d="M15.5146 25.4427C15.5495 25.4424 15.584 25.4366 15.617 25.4253C15.7649 25.3734 15.9129 25.323 16.0625 25.2679C16.1412 25.2413 16.2062 25.1847 16.2433 25.1104C16.2805 25.0361 16.2868 24.9501 16.2608 24.8712L15.5713 22.8358C15.5504 22.7727 15.51 22.7179 15.456 22.6791C15.402 22.6404 15.3371 22.6197 15.2706 22.6201C15.2368 22.6202 15.2033 22.6261 15.1715 22.6374C15.014 22.6862 14.8724 22.7366 14.7244 22.7949C14.685 22.8082 14.6487 22.8291 14.6174 22.8565C14.5862 22.8839 14.5607 22.9173 14.5424 22.9546C14.5241 22.9919 14.5134 23.0325 14.5108 23.074C14.5083 23.1154 14.514 23.157 14.5276 23.1963L15.2187 25.2301C15.2399 25.2919 15.2798 25.3455 15.3328 25.3836C15.3858 25.4216 15.4494 25.4423 15.5146 25.4427Z" fill="white"/>
<path d="M22.0992 17.7244C22.1052 17.7279 22.1102 17.733 22.1135 17.7391C22.1168 17.7452 22.1184 17.7521 22.1181 17.759C22.1275 18.2752 22.1417 18.7519 22.1574 19.2145C22.1582 19.2229 22.1619 19.2307 22.168 19.2365C22.1741 19.2423 22.1821 19.2457 22.1904 19.246H22.5587C22.563 19.2458 22.5673 19.2445 22.5712 19.2423C22.575 19.2401 22.5782 19.2371 22.5807 19.2334C22.5838 19.2304 22.5863 19.2267 22.5879 19.2226C22.5895 19.2186 22.5903 19.2142 22.5901 19.2098C22.5775 18.8841 22.5649 18.5552 22.5524 18.2327C22.5524 18.2239 22.5543 18.2152 22.5581 18.2073C22.562 18.1994 22.5675 18.1925 22.5744 18.187C24.321 16.8653 25.701 15.3201 26.3603 13.9511L26.3414 13.9401C25.531 15.2949 24.2612 16.5962 22.5649 17.8062C22.5625 17.8083 22.5595 17.8096 22.5563 17.8101C22.5531 17.8105 22.5498 17.81 22.5469 17.8087C22.5439 17.8074 22.5414 17.8053 22.5396 17.8027C22.5378 17.8 22.5368 17.7969 22.5366 17.7937C22.4721 15.7182 22.4721 14.0078 22.5366 12.5649C22.5366 12.3698 22.5476 12.1652 22.5524 11.9355C22.5526 11.9238 22.556 11.9124 22.562 11.9025C22.5681 11.8925 22.5767 11.8844 22.587 11.8788C23.3642 11.435 24.0672 10.8722 24.6703 10.2109L24.6561 10.1952C24.0318 10.7597 23.3361 11.24 22.587 11.6239C22.5833 11.6258 22.5793 11.6269 22.5752 11.6269C22.5711 11.6269 22.567 11.6258 22.5634 11.6239C22.562 11.6193 22.562 11.6144 22.5634 11.6098C22.6074 9.04966 22.5476 6.06313 22.4249 4.66113H22.4029C22.4155 6.14967 22.4029 7.67441 22.3509 9.19599C22.3506 9.19947 22.3489 9.20268 22.3463 9.205C22.3437 9.20733 22.3403 9.2086 22.3368 9.20858C22.3337 9.20966 22.3304 9.20966 22.3273 9.20858C21.7005 8.54471 21.1374 7.82351 20.6453 7.05444L20.628 7.06546C21.097 7.94382 21.6588 8.76938 22.3037 9.528C22.3267 9.55393 22.3386 9.58783 22.3368 9.62241C22.3037 10.609 22.2565 11.5862 22.1999 12.5255C22.1842 12.8402 22.17 13.188 22.1543 13.5987C22.1543 13.6016 22.1534 13.6045 22.1519 13.6069C22.1504 13.6094 22.1482 13.6114 22.1456 13.6128C22.1429 13.6141 22.14 13.6146 22.1371 13.6143C22.1342 13.6141 22.1314 13.613 22.1291 13.6113C21.2995 13.0072 20.5894 12.2544 20.0347 11.391L20.0159 11.4021C20.524 12.3613 21.2336 13.1992 22.096 13.8583C22.1112 13.8695 22.1235 13.8843 22.1317 13.9013C22.1399 13.9183 22.1439 13.937 22.1432 13.9559C22.1086 15.0778 22.0976 16.2154 22.1118 17.3389C22.1119 17.3415 22.1119 17.3442 22.1118 17.3468C22.1099 17.3479 22.1077 17.3485 22.1055 17.3485C22.1033 17.3485 22.1011 17.3479 22.0992 17.3468C20.5765 16.4271 19.2744 15.1841 18.285 13.7057L18.2661 13.7183C19.2072 15.3394 20.5212 16.7127 22.0992 17.7244Z" fill="#003A78"/>
<path d="M10.9369 21.8163C10.9415 21.8178 10.9465 21.8178 10.9511 21.8163L11.2029 21.6983C11.2069 21.6959 11.2104 21.6928 11.2131 21.689C11.2158 21.6852 11.2177 21.6808 11.2186 21.6763C11.2203 21.6723 11.2212 21.668 11.2212 21.6637C11.2212 21.6593 11.2203 21.6551 11.2186 21.6511L10.9369 21.3616C10.9269 21.3517 10.919 21.3399 10.9136 21.327C10.9082 21.314 10.9054 21.3001 10.9055 21.286C10.8998 20.3393 10.5561 19.4258 9.93618 18.7102L9.91888 18.7228C10.3822 19.4052 10.6264 20.2126 10.6191 21.0374C10.0196 20.4411 9.36028 19.829 8.67738 19.2216C8.6669 19.2122 8.65875 19.2004 8.65356 19.1873C8.64837 19.1742 8.64629 19.1601 8.64748 19.1461C8.71333 18.451 8.58763 17.7512 8.284 17.1225L8.26354 17.132C8.47309 17.7263 8.52726 18.3644 8.42089 18.9856H8.40988C7.63256 18.2901 6.79703 17.4561 5.82775 16.4443L5.81201 16.4585C6.62552 17.4294 7.58851 18.4537 8.7529 19.5898C8.92442 19.7471 9.10537 19.9265 9.30678 20.1264C9.19191 20.1358 9.07705 20.1389 8.96218 20.1389C8.10208 20.1252 7.25632 19.9165 6.48862 19.5284L6.47761 19.5473C7.36053 20.0973 8.38144 20.3854 9.42165 20.3781H9.53022C9.53834 20.3779 9.54642 20.3794 9.55398 20.3823C9.56155 20.3853 9.56845 20.3898 9.57428 20.3954C9.96136 20.7888 10.3972 21.2514 10.907 21.8116C10.9112 21.8148 10.9162 21.8169 10.9214 21.8178C10.9266 21.8186 10.932 21.8181 10.9369 21.8163Z" fill="#003A78"/>
<path d="M36.1591 19.2641C37.0434 18.3704 37.8899 17.4624 38.6499 16.564L38.6342 16.5498C37.7231 17.464 36.7963 18.3688 35.8019 19.3145H35.794C35.7004 18.6477 35.7206 17.9698 35.8538 17.3098H35.8333C35.5901 18.0084 35.5005 18.7512 35.5706 19.4876C35.5715 19.5026 35.569 19.5176 35.5633 19.5315C35.5576 19.5454 35.5488 19.5578 35.5375 19.5678C34.7822 20.2428 34.0679 20.9257 33.418 21.5976C33.4147 21.6009 33.4123 21.6049 33.411 21.6092C33.4096 21.6136 33.4093 21.6183 33.4101 21.6228C33.4112 21.6271 33.4132 21.6311 33.4159 21.6346C33.4186 21.6381 33.422 21.6411 33.4259 21.6433L33.6824 21.7754H33.6997C33.7109 21.7754 33.7216 21.7708 33.7296 21.7628C33.9687 21.5001 34.2347 21.2153 34.5431 20.8943C34.5546 20.8822 34.5686 20.8726 34.584 20.8661C34.5994 20.8596 34.616 20.8564 34.6327 20.8565C35.6238 20.8655 36.598 20.6003 37.4478 20.0902L37.4367 20.0713C36.7323 20.4026 35.965 20.5791 35.1866 20.589C35.0812 20.589 34.9742 20.589 34.8719 20.578C34.8719 20.578 34.8641 20.578 34.8625 20.578C34.8617 20.5766 34.8612 20.5749 34.8612 20.5733C34.8612 20.5716 34.8617 20.57 34.8625 20.5686C35.2842 20.1122 35.7248 19.6779 36.1591 19.2641Z" fill="#003A78"/>
<path d="M23.3031 37.2646C22.5447 37.2646 21.8256 37.4724 21.4763 37.9853C21.4739 37.9875 21.4709 37.9888 21.4676 37.9888C21.4644 37.9888 21.4613 37.9875 21.459 37.9853C21.2308 37.8358 20.4787 37.3811 19.6022 37.3811C19.1302 37.3811 18.6156 37.6092 18.0964 37.9035C18.0898 37.9059 18.0825 37.9059 18.0759 37.9035C16.696 37.7005 15.3726 37.968 14.0776 38.4715C15.4309 38.1285 16.7054 37.9098 17.7203 38.1081V38.1206C17.1192 38.4857 16.5229 38.8869 15.9895 39.0647C17.0909 38.9373 18.5181 37.6911 19.629 37.6911C20.3685 37.6911 21.1144 38.1521 21.3111 38.2827C21.3129 38.2855 21.3139 38.2888 21.3139 38.2922C21.3139 38.2955 21.3129 38.2988 21.3111 38.3016C21.2533 38.4953 21.234 38.6984 21.2544 38.8995C21.6163 37.8988 22.3559 37.669 23.3551 37.669C24.1277 37.669 24.9018 37.9444 25.805 38.149C25.814 38.1506 25.8222 38.155 25.8286 38.1615C26.3809 38.6415 27.4021 39.1214 27.8742 39.2032L28.0819 39.2378L27.8852 39.1607C27.4714 39.0034 26.7365 38.6336 26.3683 38.2748V38.2638C26.7674 38.3334 27.1717 38.3687 27.5768 38.3693C29.1849 38.3693 29.9087 38.0829 30.3635 37.8972C29.8804 37.9995 29.4194 38.1458 27.8049 38.1458C26.3573 38.1537 24.5021 37.2646 23.3031 37.2646Z" fill="#003A78"/>
<path d="M22.9586 24.9559C23.0613 24.958 23.1634 24.9396 23.2589 24.9017C23.3544 24.8638 23.4413 24.8072 23.5146 24.7352C23.5879 24.6632 23.6461 24.5773 23.6857 24.4826C23.7253 24.3878 23.7456 24.2861 23.7454 24.1833V21.5949C23.7459 21.3841 23.6638 21.1814 23.5168 21.0302C23.3698 20.8791 23.1694 20.7915 22.9586 20.7861H22.4488H21.9406C21.7299 20.7919 21.5298 20.8796 21.3829 21.0307C21.2359 21.1817 21.1537 21.3842 21.1538 21.5949V24.1786C21.1534 24.2814 21.1735 24.3832 21.2131 24.4781C21.2526 24.573 21.3108 24.6589 21.3841 24.731C21.4575 24.803 21.5445 24.8596 21.6401 24.8974C21.7356 24.9352 21.8378 24.9535 21.9406 24.9512C22.0114 24.9544 22.4 24.9496 22.9586 24.9559ZM21.8981 21.7995C21.8981 21.716 21.9312 21.636 21.9903 21.5769C22.0493 21.5179 22.1293 21.4848 22.2128 21.4848H22.6848C22.7262 21.4848 22.7671 21.4929 22.8053 21.5087C22.8435 21.5245 22.8781 21.5477 22.9074 21.5769C22.9366 21.6062 22.9598 21.6409 22.9756 21.679C22.9914 21.7172 22.9995 21.7581 22.9995 21.7995V23.9552C22.9995 24.0386 22.9664 24.1187 22.9074 24.1777C22.8484 24.2367 22.7683 24.2699 22.6848 24.2699H22.2128C22.1293 24.2699 22.0493 24.2367 21.9903 24.1777C21.9312 24.1187 21.8981 24.0386 21.8981 23.9552V21.7995Z" fill="#003A78"/>
<path d="M17.3096 27.1289H16.7463L15.9596 28.9447L15.1728 27.1289H14.6079V30.7511H15.3191V29.0801L15.9596 30.5293L16.6 29.0801V30.7511H17.3096V27.1289Z" fill="#003A78"/>
<path d="M18.7697 25.292L18.5714 24.0599L18.6233 24.0505L18.927 23.9986H18.9601L18.9805 24.0253L19.7673 25.1362C20.0033 25.1 20.2393 25.067 20.4754 25.0355L19.7012 23.9341L19.6619 23.879L19.7232 23.8522C19.8823 23.7853 20.0142 23.6668 20.0978 23.5158C20.1814 23.3649 20.2119 23.1902 20.1843 23.0198L19.9718 21.7012C19.9409 21.5138 19.8453 21.3431 19.7015 21.2189C19.5578 21.0947 19.375 21.0248 19.1851 21.0215C19.1461 21.0215 19.1071 21.0247 19.0686 21.0309C18.5116 21.1143 17.9483 21.2103 17.396 21.3173L18.06 25.4289C18.2913 25.3785 18.5321 25.3345 18.7697 25.292ZM18.2693 21.857L18.9254 21.7484C18.9664 21.742 19.0082 21.7436 19.0485 21.7533C19.0887 21.763 19.1267 21.7806 19.1602 21.805C19.1937 21.8294 19.222 21.8602 19.2436 21.8956C19.2651 21.931 19.2795 21.9703 19.2858 22.0112L19.429 22.8987C19.4417 22.9809 19.4213 23.0647 19.3724 23.1319C19.3234 23.1992 19.2499 23.2443 19.1678 23.2574C18.9506 23.2905 18.7319 23.3267 18.5148 23.3644L18.4597 23.3739L18.2158 21.8665L18.2693 21.857Z" fill="#003A78"/>
<path d="M24.1794 28.9762V27.8449C24.1794 27.7508 24.1609 27.6577 24.1249 27.5709C24.089 27.484 24.0362 27.4051 23.9697 27.3386C23.9033 27.2721 23.8243 27.2194 23.7375 27.1834C23.6506 27.1474 23.5575 27.1289 23.4635 27.1289H21.8994V30.748H22.6091V29.689H23.4635C23.6528 29.689 23.8345 29.614 23.9686 29.4804C24.1028 29.3468 24.1786 29.1655 24.1794 28.9762ZM23.4698 28.7921C23.4698 28.8505 23.4466 28.9066 23.4053 28.9479C23.3639 28.9892 23.3079 29.0124 23.2495 29.0124H22.6091V27.8102H23.2495C23.2784 27.8102 23.3071 27.8159 23.3338 27.827C23.3605 27.8381 23.3848 27.8543 23.4053 27.8748C23.4257 27.8952 23.4419 27.9195 23.453 27.9462C23.4641 27.973 23.4698 28.0016 23.4698 28.0305V28.7921Z" fill="#003A78"/>
<path d="M14.6079 31.8789V35.4996H16.729V34.8198H15.3254V31.8789H14.6079Z" fill="#003A78"/>
<path d="M33.9349 23.7062C33.6375 23.5489 33.3322 23.3915 33.0301 23.2342C32.9212 23.1796 32.801 23.1516 32.6792 23.1524C32.5305 23.1531 32.3848 23.1941 32.2576 23.2712C32.1304 23.3482 32.0265 23.4583 31.957 23.5898L30.7706 25.8855C30.7236 25.976 30.6951 26.0749 30.6867 26.1765C30.6783 26.278 30.6902 26.3803 30.7218 26.4772C30.754 26.5759 30.8058 26.6671 30.8739 26.7455C30.942 26.8238 31.0251 26.8878 31.1183 26.9335C31.4188 27.0909 31.7241 27.2482 32.0246 27.4056C32.1388 27.4672 32.2663 27.4996 32.396 27.5C32.5376 27.5001 32.6764 27.4611 32.7972 27.3872C32.918 27.3133 33.0161 27.2075 33.0805 27.0814L34.2669 24.7857C34.3637 24.5981 34.3831 24.38 34.3211 24.1782C34.259 23.9764 34.1204 23.807 33.9349 23.7062ZM33.5085 24.622L32.5234 26.5291C32.497 26.5802 32.457 26.623 32.4079 26.653C32.3588 26.683 32.3025 26.6989 32.2449 26.6991C32.1945 26.6988 32.1448 26.6864 32.1002 26.6629L31.6816 26.4457C31.6443 26.4276 31.6111 26.4021 31.5841 26.3707C31.557 26.3393 31.5367 26.3027 31.5243 26.2632C31.4987 26.1841 31.5055 26.0981 31.5431 26.024L32.5313 24.1122C32.5578 24.0604 32.5982 24.0169 32.6479 23.9866C32.6976 23.9563 32.7548 23.9404 32.813 23.9407C32.8628 23.9404 32.912 23.9523 32.9562 23.9753L33.3747 24.1909C33.4122 24.2099 33.4456 24.2364 33.4727 24.2685C33.4998 24.3007 33.5202 24.338 33.5327 24.3782C33.5452 24.4184 33.5495 24.4607 33.5453 24.5026C33.5411 24.5444 33.5286 24.5851 33.5085 24.622Z" fill="#003A78"/>
<path d="M15.3161 26.2178C15.4061 26.2176 15.4955 26.2022 15.5804 26.1722C15.8951 26.0589 16.2255 25.9487 16.5481 25.8449C16.6471 25.8134 16.7388 25.7624 16.8178 25.6948C16.8967 25.6272 16.9612 25.5445 17.0076 25.4515C17.0535 25.3606 17.0807 25.2613 17.0875 25.1597C17.0942 25.058 17.0804 24.9561 17.0469 24.8599L16.2177 22.413C16.1622 22.2535 16.0589 22.1149 15.9217 22.0164C15.7845 21.9178 15.6203 21.864 15.4514 21.8623C15.369 21.8619 15.2871 21.8752 15.2091 21.9017C14.8944 22.0055 14.5639 22.1156 14.2445 22.2274C14.0456 22.2993 13.8829 22.4465 13.7914 22.6372C13.6999 22.8278 13.6869 23.0468 13.7551 23.247L14.5859 25.6938C14.6376 25.8465 14.7358 25.9792 14.8668 26.0732C14.9977 26.1672 15.1549 26.2177 15.3161 26.2178ZM14.726 22.7954C14.8739 22.7435 15.0234 22.6931 15.1729 22.6381C15.2047 22.6267 15.2382 22.6209 15.272 22.6207C15.3384 22.6204 15.4033 22.641 15.4573 22.6797C15.5113 22.7184 15.5516 22.7733 15.5725 22.8363L16.2617 24.8709C16.2877 24.9497 16.2814 25.0357 16.2443 25.11C16.2071 25.1842 16.1421 25.2408 16.0635 25.2674C15.9061 25.3162 15.7661 25.3665 15.6182 25.4247C15.5852 25.436 15.5507 25.4418 15.5159 25.4421C15.4509 25.4414 15.3877 25.4206 15.3351 25.3825C15.2824 25.3445 15.2428 25.2911 15.2216 25.2296L14.5309 23.1967C14.5172 23.1575 14.5115 23.116 14.5139 23.0747C14.5163 23.0333 14.5269 22.9928 14.545 22.9555C14.5632 22.9182 14.5885 22.8849 14.6195 22.8574C14.6506 22.8299 14.6868 22.8089 14.726 22.7954Z" fill="#003A78"/>
<path d="M12.0852 23.9044C12.3558 23.7675 12.6312 23.6322 12.9049 23.5L12.5902 22.8848C11.7925 23.2671 10.9963 23.6794 10.23 24.109L10.5447 24.7258C10.809 24.5794 11.0781 24.4331 11.3472 24.2899L11.396 24.2647L12.9821 27.3457C13.196 27.234 13.4132 27.1207 13.6303 27.0105L12.0379 23.9296L12.0852 23.9044Z" fill="#003A78"/>
<path d="M25.176 20.9268L24.4805 25.0321C24.7196 25.0651 24.962 25.1013 25.2011 25.139L25.6008 22.7788L25.67 22.9818C25.9391 23.7685 26.2113 24.5663 26.4757 25.3546L27.0437 25.4648L27.7376 21.3595C27.5032 21.3123 27.2656 21.2651 27.0233 21.221L26.6236 23.5813L26.5544 23.3751C26.2884 22.5884 26.0178 21.7906 25.7487 21.0149C25.5583 20.9803 25.3664 20.9535 25.176 20.9268Z" fill="#003A78"/>
<path d="M28.5448 35.4996H29.5644C29.7549 35.5004 29.9379 35.4257 30.0733 35.2917C30.2087 35.1578 30.2854 34.9756 30.2867 34.7852V34.2659C30.2958 34.1378 30.268 34.0096 30.2067 33.8967C30.1453 33.7838 30.053 33.6908 29.9405 33.6287C29.9405 33.6287 28.6722 33.0638 28.6549 33.0543C28.6204 33.0343 28.5913 33.006 28.5705 32.9719C28.5496 32.9378 28.5375 32.8991 28.5353 32.8592V32.779C28.5355 32.7498 28.5415 32.721 28.5528 32.6942C28.5642 32.6673 28.5807 32.643 28.6014 32.6225C28.6222 32.6021 28.6468 32.5859 28.6738 32.575C28.7007 32.564 28.7296 32.5585 28.7588 32.5587H29.3473C29.4058 32.5587 29.462 32.5818 29.5036 32.6231C29.5452 32.6644 29.5687 32.7204 29.5691 32.779V32.9363H30.2914V32.5933C30.2901 32.4029 30.2134 32.2207 30.078 32.0868C29.9426 31.9528 29.7596 31.8781 29.5691 31.8789H28.5448C28.4503 31.8783 28.3567 31.8963 28.2692 31.9318C28.1817 31.9674 28.1021 32.0199 28.0349 32.0862C27.9677 32.1525 27.9142 32.2315 27.8775 32.3185C27.8408 32.4055 27.8216 32.4989 27.821 32.5933V32.9678C27.812 33.0959 27.8399 33.224 27.9012 33.3369C27.9625 33.4497 28.0548 33.5428 28.1671 33.6051C28.1671 33.6051 29.4354 34.1684 29.4527 34.1778C29.4873 34.1978 29.5164 34.2261 29.5373 34.2601C29.5582 34.2942 29.5702 34.333 29.5723 34.3729V34.5995C29.5719 34.6581 29.5483 34.7141 29.5067 34.7554C29.4652 34.7967 29.409 34.8198 29.3504 34.8198H28.7604C28.7018 34.8198 28.6456 34.7967 28.604 34.7554C28.5625 34.7141 28.5389 34.6581 28.5385 34.5995V34.4422H27.821V34.782C27.8212 34.8767 27.8401 34.9705 27.8766 35.0578C27.9131 35.1452 27.9666 35.2245 28.0338 35.2912C28.1011 35.3579 28.1808 35.4106 28.2685 35.4463C28.3562 35.4821 28.4501 35.5002 28.5448 35.4996Z" fill="#003A78"/>
<path d="M30.2865 30.0714H28.905V29.2799H29.8444V28.6001H28.905V27.8102H30.2865V27.1289H28.1953V30.7511H30.2865V30.0714Z" fill="#003A78"/>
<path d="M26.878 32.5587V31.8789H24.6074V35.4996H25.3234V34.0299H26.4311V33.3486H25.3234V32.5587H26.878Z" fill="#003A78"/>
<path d="M29.1268 26.1037L30.2282 22.8151L30.2801 22.8324C30.5665 22.9315 30.856 23.0354 31.1408 23.1471L31.3611 22.4893C30.5319 22.1746 29.6822 21.8961 28.8435 21.6396L28.6217 22.2974C28.9112 22.3855 29.2039 22.4783 29.4934 22.5712L29.5453 22.5885L28.4438 25.8787C28.6641 25.9479 28.897 26.025 29.1268 26.1037Z" fill="#003A78"/>
<path d="M21.7172 34.8192H22.8328L23.0059 35.499H23.7438L22.7635 31.8799H21.7943L20.814 35.499H21.5519L21.7172 34.8192ZM22.2758 32.6289L22.6597 34.1379H21.8902L22.2758 32.6289Z" fill="#003A78"/>
<path d="M20.2506 30.7509H20.9807L20.0885 27.1318H19.1192L18.2271 30.7509H18.9619L19.1192 30.0712H20.1042L20.2506 30.7509ZM19.2656 29.3898L19.6039 27.8808L19.9438 29.3898H19.2656Z" fill="#003A78"/>
<path d="M27.2767 30.0714H25.966V27.1289H25.2563V30.7511H27.2767V30.0714Z" fill="#003A78"/>
<path d="M19.9435 32.5587V31.8789H17.6714V35.4996H19.9435V34.8198H18.3889V34.0299H19.4967V33.3486H18.3889V32.5587H19.9435Z" fill="#003A78"/>
<path d="M31.7904 41.7655V42.5038H31.6062V41.7655H31.3921V41.5781H32.0045V41.7623L31.7904 41.7655ZM32.7916 42.5038V41.9591L32.6341 42.2991H32.4767L32.3193 41.9591V42.5038H32.132V41.5781H32.3177L32.5539 42.0708L32.7916 41.5781H32.9757V42.5006L32.7916 42.5038Z" fill="white"/>
</svg>
